<svg xmlns="http://www.w3.org/2000/svg" width="63.938" height="63.938" viewBox="0 0 63.938 63.938">
  <g id="Group_2470" data-name="Group 2470" transform="translate(-1058.164 -9463.33)">
    <path id="Subtraction_24" data-name="Subtraction 24" d="M31.969,63.938A31.977,31.977,0,0,1,19.525,2.512,31.977,31.977,0,0,1,44.413,61.426,31.77,31.77,0,0,1,31.969,63.938ZM32.21,16.8c-4.978,0-5.579.019-7.6.109a10.36,10.36,0,0,0-3.488.65,6.219,6.219,0,0,0-3.568,3.566,10.308,10.308,0,0,0-.647,3.49c-.09,2.015-.109,2.615-.109,7.6s.019,5.581.109,7.6a10.3,10.3,0,0,0,.647,3.487,5.879,5.879,0,0,0,1.407,2.164,5.818,5.818,0,0,0,2.161,1.4,10.3,10.3,0,0,0,3.488.647c1.954.091,2.544.11,7.6.11s5.644-.019,7.595-.11a10.358,10.358,0,0,0,3.491-.647,6.227,6.227,0,0,0,3.565-3.568,10.354,10.354,0,0,0,.65-3.487c.09-2,.109-2.6.109-7.6s-.019-5.6-.109-7.6a10.358,10.358,0,0,0-.65-3.49A6.2,6.2,0,0,0,43.3,17.56a10.309,10.309,0,0,0-3.491-.646C37.806,16.82,37.209,16.8,32.21,16.8Zm0,23.776a8.365,8.365,0,1,1,8.365-8.365A8.374,8.374,0,0,1,32.21,40.576Zm0-13.668a5.3,5.3,0,1,0,5.3,5.3A5.309,5.309,0,0,0,32.21,26.908Zm10.033-2.475A2.255,2.255,0,1,1,44.5,22.178,2.258,2.258,0,0,1,42.243,24.433Z" transform="translate(1058.164 9463.33)" fill="#4b5151"/>
  </g>
</svg>
