<svg xmlns="http://www.w3.org/2000/svg" width="161.298" height="34.24" viewBox="0 0 161.298 34.24">
  <g id="Group_2817" data-name="Group 2817" transform="translate(-1471 -617)">
    <g id="Group_881" data-name="Group 881" transform="translate(1471 617)">
      <g id="Group_480" data-name="Group 480">
        <path id="Path_499" data-name="Path 499" d="M341.646,150.035h-4.731v7.343h-2.531v-7.343h-4.73v7.343h-2.24v1.876h2.24v15.8h-2.24v1.877h2.24v7.343h4.73v-7.343h2.531v7.343h4.731v-7.343h2.312v-1.877h-2.312v-15.8h2.312v-1.876h-2.312Zm-4.731,25.02h-2.531v-15.8h2.531Z" transform="translate(-327.415 -150.035)" fill="#fff"/>
      </g>
      <g id="Group_481" data-name="Group 481" transform="translate(29.285 6.939)">
        <path id="Path_500" data-name="Path 500" d="M499.443,190.87v-6.1H504.5v-1.909h-5.062v-5.356h5.816V175.6H495.9v17.194h9.8v-1.917Z" transform="translate(-460.452 -172.716)" fill="#fff"/>
        <path id="Path_501" data-name="Path 501" d="M545.782,170a8.814,8.814,0,0,1,3.273.859l.857-1.549a9.085,9.085,0,0,0-4.426-1.216c-4.145,0-6.865,2.115-6.865,5.39,0,2.147,1.571,3.868,3.485,4.987a13.434,13.434,0,0,1,3.731,2.634,3.1,3.1,0,0,1-2.518,5.247,7.532,7.532,0,0,1-3.95-1.533l-1.334,1.682a10.356,10.356,0,0,0,5.487,1.955c4.29,0,6.813-2.77,6.813-5.494a5.367,5.367,0,0,0-1.487-3.85,12.205,12.205,0,0,0-1.969-1.755c-1.5-1.158-3.126-2.056-3.589-2.458a2.523,2.523,0,0,1-1.214-2.138C542.077,171.17,543.452,170,545.782,170Z" transform="translate(-486.401 -168.095)" fill="#fff"/>
        <path id="Path_502" data-name="Path 502" d="M630.366,175.476l-6.589,17.233h3.012l1.977-5.554H634.1l2.058,5.554h3.68l-6.577-17.233Zm-1,9.874,2-5.5,2.064,5.5Z" transform="translate(-539.201 -172.64)" fill="#fff"/>
        <path id="Path_503" data-name="Path 503" d="M681.356,183.578l.088-.023c2.357-.59,3.69-2.146,3.69-4.118a4.446,4.446,0,0,0-3.136-4.26,11.4,11.4,0,0,0-3.815-.527,21.562,21.562,0,0,0-4.32.517V192.2h3.42v-7.85a2.77,2.77,0,0,1,1.391.294,7.66,7.66,0,0,1,1.873,2.206c.912,1.412,2.884,5.35,2.884,5.35h3.6s-2.231-4.545-3.31-6.218A8.305,8.305,0,0,0,681.356,183.578Zm-3.3-.877h-.773v-6.294a6,6,0,0,1,.875-.083,3.189,3.189,0,1,1-.1,6.377Z" transform="translate(-570.044 -172.131)" fill="#fff"/>
        <path id="Path_504" data-name="Path 504" d="M723.333,174.727c-.544-.058-1.274-.078-1.774-.078a19.541,19.541,0,0,0-4.322.573V192.2h3.524v-7.052h.592a14.757,14.757,0,0,0,2.534-.132c3.01-.449,4.879-2.506,4.879-5.167C728.766,176.918,726.786,175.051,723.333,174.727Zm-1.569,8.617h-1v-6.8a6.71,6.71,0,0,1,1-.069c1.97,0,3.243,1.414,3.243,3.6A2.971,2.971,0,0,1,721.764,183.344Z" transform="translate(-596.753 -172.131)" fill="#fff"/>
        <path id="Path_505" data-name="Path 505" d="M403.639,171.285h5.366v17.549h3.513V171.285h5.366v-2.1H403.639Z" transform="translate(-403.639 -168.765)" fill="#fff"/>
        <path id="Path_506" data-name="Path 506" d="M456.928,175.476v6.938h-6.138v-6.938h-3.546v17.233h3.546v-8.381h6.138v8.381h3.546V175.476Z" transform="translate(-430.492 -172.64)" fill="#fff"/>
        <path id="Path_507" data-name="Path 507" d="M590.633,175.476v6.938H584.5v-6.938h-3.547v17.233H584.5v-8.381h6.137v8.381h3.545V175.476Z" transform="translate(-512.827 -172.64)" fill="#fff"/>
      </g>
    </g>
  </g>
</svg>
