<svg xmlns="http://www.w3.org/2000/svg" width="75.741" height="14.558" viewBox="0 0 75.741 14.558">
  <g id="Group_2393" data-name="Group 2393" transform="translate(-5.669 -5.67)">
    <g id="Group_229" data-name="Group 229" transform="translate(5.669 5.67)">
      <g id="Group_226" data-name="Group 226" transform="translate(0 0)">
        <path id="Path_251" data-name="Path 251" d="M27.087,7.176a1.358,1.358,0,0,1-2.6-.685,1.358,1.358,0,0,1,2.6.685Z" transform="translate(-22.82 -5.67)" fill="#05507d"/>
        <path id="Path_252" data-name="Path 252" d="M135.562,7.176a1.359,1.359,0,0,0,2.6-.685,1.359,1.359,0,0,0-2.6.685Z" transform="translate(-124.206 -5.67)" fill="#05507d"/>
        <path id="Path_253" data-name="Path 253" d="M21.143,39.939a11.076,11.076,0,0,0-.594-2.282l-.031-.09a1.251,1.251,0,0,0-.844-.889,1.362,1.362,0,0,0-.563,0,1.378,1.378,0,0,0-.627.293,1.32,1.32,0,0,0-.433,1.318c.026.094.116.356.232.688.042.106.072.2.095.255a6.122,6.122,0,0,1,.267,1.068,6.588,6.588,0,0,1-1.018,4.714,2.311,2.311,0,0,1-1.549.972,3.173,3.173,0,0,1-.75-.031,6.89,6.89,0,0,0,.686-2.532c.137-2.71-1.192-3.491-2.336-3.668l-.049,0c-.07,0-.114,0-.143,0a1.264,1.264,0,0,0-.244,0l-.043.005c-1.14.18-2.471.964-2.329,3.682a6.865,6.865,0,0,0,.684,2.51,3.035,3.035,0,0,1-.745.032,2.328,2.328,0,0,1-1.551-.971A6.589,6.589,0,0,1,8.24,40.3a5.323,5.323,0,0,1,.233-1.035c.027-.072.078-.208.131-.354.119-.318.2-.533.221-.618a1.305,1.305,0,0,0-.433-1.323,1.373,1.373,0,0,0-.628-.29,1.345,1.345,0,0,0-.558,0c-.293.075-.6.235-.841.88a12.7,12.7,0,0,0-.627,2.389,9.808,9.808,0,0,0,1.236,6.175c.851,1.371,1.638,2.183,3.15,2.291.179.014.366.019.559.019a6.72,6.72,0,0,0,2.759-.528l.032.02a4.776,4.776,0,0,0,2.337.574c.143,0,.286-.005.431-.015a4.77,4.77,0,0,0,3.677-2.365A9.528,9.528,0,0,0,21.143,39.939Zm-7.19,3.586a5.3,5.3,0,0,1-.508,2.074,5.273,5.273,0,0,1-.511-2.068c-.083-1.82.175-3.212.445-3.311,0,0,.043-.02.083-.036l.042.027C13.817,40.358,14.035,41.7,13.953,43.525Z" transform="translate(-5.669 -33.947)" fill="#f18a00"/>
      </g>
      <g id="Group_228" data-name="Group 228" transform="translate(16.828 4.163)">
        <path id="Path_254" data-name="Path 254" d="M198.667,57.191V55.757h1.74v1.434Zm1.74.979v6.321h-1.74V58.17Z" transform="translate(-198.667 -55.553)" fill="#05507d"/>
        <path id="Path_255" data-name="Path 255" d="M230.188,63.556v1.158h-1.272v3.137a.588.588,0,0,0,.733.732c.1,0,.192,0,.281-.012a2.352,2.352,0,0,0,.258-.037v1.344a3.966,3.966,0,0,1-.489.049c-.178.009-.356.012-.53.012a5.19,5.19,0,0,1-.761-.054,1.824,1.824,0,0,1-.637-.211,1.154,1.154,0,0,1-.434-.451,1.649,1.649,0,0,1-.158-.775V64.714h-1.051V63.556h1.051v-1.9h1.737v1.9Z" transform="translate(-223.734 -60.938)" fill="#05507d"/>
        <path id="Path_256" data-name="Path 256" d="M282.467,55.757v3.294h.036a2,2,0,0,1,.845-.8,2.25,2.25,0,0,1,1-.254,2.918,2.918,0,0,1,1.144.193,1.7,1.7,0,0,1,.7.526,2.075,2.075,0,0,1,.361.817,5.252,5.252,0,0,1,.1,1.071v3.888h-1.74V60.92a2.166,2.166,0,0,0-.247-1.165.928.928,0,0,0-.864-.39,1.211,1.211,0,0,0-1.029.421,2.35,2.35,0,0,0-.317,1.39v3.316h-1.74V55.757Z" transform="translate(-273.572 -55.553)" fill="#05507d"/>
        <g id="Group_227" data-name="Group 227" transform="translate(16.804)">
          <path id="Path_257" data-name="Path 257" d="M395.334,55.757a3.577,3.577,0,0,1,1.392.242,2.582,2.582,0,0,1,.938.628,2.389,2.389,0,0,1,.525.892,3.339,3.339,0,0,1,0,2.074,2.363,2.363,0,0,1-.525.9,2.658,2.658,0,0,1-.938.632,3.712,3.712,0,0,1-1.392.238h-2.02v3.128h-1.922V55.757Zm-.53,4.111a4.042,4.042,0,0,0,.637-.049,1.439,1.439,0,0,0,.54-.187,1.081,1.081,0,0,0,.373-.4,1.44,1.44,0,0,0,.141-.676,1.417,1.417,0,0,0-.141-.671,1.064,1.064,0,0,0-.373-.4,1.568,1.568,0,0,0-.54-.186,3.853,3.853,0,0,0-.637-.049h-1.49v2.616Z" transform="translate(-391.392 -55.553)" fill="#05507d"/>
          <path id="Path_258" data-name="Path 258" d="M477.944,56.209a4.435,4.435,0,0,1,.845-1.464,3.874,3.874,0,0,1,1.353-.978,4.791,4.791,0,0,1,3.616,0,3.876,3.876,0,0,1,1.344.978,4.379,4.379,0,0,1,.846,1.464,5.441,5.441,0,0,1,.291,1.815,5.308,5.308,0,0,1-.291,1.78,4.222,4.222,0,0,1-.846,1.437,3.922,3.922,0,0,1-1.344.961,4.879,4.879,0,0,1-3.616,0,3.92,3.92,0,0,1-1.353-.961,4.275,4.275,0,0,1-.845-1.437,5.352,5.352,0,0,1-.293-1.78A5.485,5.485,0,0,1,477.944,56.209Zm1.756,2.883a2.928,2.928,0,0,0,.409.937,2.091,2.091,0,0,0,.737.668,2.556,2.556,0,0,0,2.2,0,2.077,2.077,0,0,0,.737-.668,2.855,2.855,0,0,0,.408-.937,4.449,4.449,0,0,0,.129-1.068,4.78,4.78,0,0,0-.129-1.114,3,3,0,0,0-.408-.961,2.04,2.04,0,0,0-.737-.671,2.51,2.51,0,0,0-2.2,0,2.053,2.053,0,0,0-.737.671,3.078,3.078,0,0,0-.409.961,4.784,4.784,0,0,0-.128,1.114A4.451,4.451,0,0,0,479.7,59.093Z" transform="translate(-470.13 -53.413)" fill="#05507d"/>
          <path id="Path_259" data-name="Path 259" d="M585.394,60.2a1.4,1.4,0,0,0,.421.5,1.8,1.8,0,0,0,.62.281,2.912,2.912,0,0,0,.733.094,3.782,3.782,0,0,0,.551-.044,2.039,2.039,0,0,0,.548-.162,1.2,1.2,0,0,0,.43-.341.842.842,0,0,0,.17-.545.768.768,0,0,0-.222-.572,1.831,1.831,0,0,0-.6-.371,6.9,6.9,0,0,0-.831-.256c-.312-.073-.625-.155-.943-.242a7.789,7.789,0,0,1-.954-.3,3.292,3.292,0,0,1-.831-.458,2.121,2.121,0,0,1-.594-.7,2.143,2.143,0,0,1-.225-1.023,2.284,2.284,0,0,1,.287-1.17,2.621,2.621,0,0,1,.752-.826,3.335,3.335,0,0,1,1.052-.49,4.638,4.638,0,0,1,1.177-.155,5.727,5.727,0,0,1,1.314.15,3.377,3.377,0,0,1,1.12.5,2.517,2.517,0,0,1,.774.875,2.681,2.681,0,0,1,.289,1.294h-1.86a1.584,1.584,0,0,0-.165-.65,1.053,1.053,0,0,0-.375-.4,1.551,1.551,0,0,0-.533-.209,3.224,3.224,0,0,0-.651-.063,2.3,2.3,0,0,0-.467.049,1.25,1.25,0,0,0-.42.174,1.09,1.09,0,0,0-.312.3.813.813,0,0,0-.123.465.764.764,0,0,0,.1.415.845.845,0,0,0,.386.3,4.887,4.887,0,0,0,.793.267c.34.09.781.208,1.328.341.163.032.389.092.678.179a3.406,3.406,0,0,1,.864.409,2.654,2.654,0,0,1,.739.756,2.129,2.129,0,0,1,.312,1.2,2.692,2.692,0,0,1-.231,1.114,2.457,2.457,0,0,1-.692.887,3.26,3.26,0,0,1-1.14.577,5.336,5.336,0,0,1-1.571.209,5.488,5.488,0,0,1-1.4-.179,3.414,3.414,0,0,1-1.2-.557,2.709,2.709,0,0,1-.822-.96,2.885,2.885,0,0,1-.294-1.4h1.857A1.618,1.618,0,0,0,585.394,60.2Z" transform="translate(-566.637 -53.413)" fill="#05507d"/>
          <path id="Path_260" data-name="Path 260" d="M680.9,55.951a1.945,1.945,0,0,0-.426-.484,2.016,2.016,0,0,0-.581-.324,1.987,1.987,0,0,0-.679-.117,2.219,2.219,0,0,0-1.1.254,2.036,2.036,0,0,0-.731.671,2.931,2.931,0,0,0-.411.961,4.74,4.74,0,0,0-.127,1.114,4.409,4.409,0,0,0,.127,1.068,2.79,2.79,0,0,0,.411.937,2.073,2.073,0,0,0,.731.668,2.217,2.217,0,0,0,1.1.249,1.779,1.779,0,0,0,1.376-.533,2.522,2.522,0,0,0,.6-1.42h1.859a4.353,4.353,0,0,1-.378,1.476,3.552,3.552,0,0,1-.806,1.129,3.43,3.43,0,0,1-1.173.705,4.282,4.282,0,0,1-1.482.247,4.518,4.518,0,0,1-1.8-.347,3.865,3.865,0,0,1-1.351-.961,4.178,4.178,0,0,1-.846-1.437,5.246,5.246,0,0,1-.293-1.78,5.378,5.378,0,0,1,.293-1.815,4.333,4.333,0,0,1,.846-1.464,3.821,3.821,0,0,1,1.351-.978,4.348,4.348,0,0,1,1.8-.354,4.421,4.421,0,0,1,1.364.2,3.715,3.715,0,0,1,1.149.608,3.3,3.3,0,0,1,.84.986,3.473,3.473,0,0,1,.413,1.345h-1.861A1.475,1.475,0,0,0,680.9,55.951Z" transform="translate(-650.196 -53.413)" fill="#05507d"/>
          <path id="Path_261" data-name="Path 261" d="M776.131,56.209a4.386,4.386,0,0,1,.843-1.464,3.846,3.846,0,0,1,1.352-.978,4.794,4.794,0,0,1,3.617,0,3.874,3.874,0,0,1,1.344.978,4.3,4.3,0,0,1,.843,1.464,5.4,5.4,0,0,1,.293,1.815,5.269,5.269,0,0,1-.293,1.78,4.148,4.148,0,0,1-.843,1.437,3.919,3.919,0,0,1-1.344.961,4.882,4.882,0,0,1-3.617,0,3.891,3.891,0,0,1-1.352-.961,4.228,4.228,0,0,1-.843-1.437,5.307,5.307,0,0,1-.3-1.78A5.439,5.439,0,0,1,776.131,56.209Zm1.753,2.883a2.877,2.877,0,0,0,.41.937,2.118,2.118,0,0,0,.737.668,2.565,2.565,0,0,0,2.2,0,2.089,2.089,0,0,0,.732-.668,2.837,2.837,0,0,0,.409-.937,4.453,4.453,0,0,0,.129-1.068,4.785,4.785,0,0,0-.129-1.114,2.981,2.981,0,0,0-.409-.961,2.052,2.052,0,0,0-.732-.671,2.519,2.519,0,0,0-2.2,0,2.079,2.079,0,0,0-.737.671,3.023,3.023,0,0,0-.41.961,4.927,4.927,0,0,0-.128,1.114A4.586,4.586,0,0,0,777.884,59.093Z" transform="translate(-742.314 -53.413)" fill="#05507d"/>
        </g>
      </g>
    </g>
  </g>
</svg>
